<!DOCTYPE svg PUBLIC "-//W3C//DTD SVG 1.1//EN" "http://www.w3.org/Graphics/SVG/1.1/DTD/svg11.dtd">
<!-- Uploaded to: SVG Repo, www.svgrepo.com, Transformed by: SVG Repo Mixer Tools -->
<svg fill="#000000" width="800px" height="800px" viewBox="0 0 32 32" version="1.1" xmlns="http://www.w3.org/2000/svg">
<g id="SVGRepo_bgCarrier" stroke-width="0"/>
<g id="SVGRepo_tracerCarrier" stroke-linecap="round" stroke-linejoin="round"/>
<g id="SVGRepo_iconCarrier"> <title>film1</title> <path d="M4 6v22h22v-22h-22zM8 26h-2v-2h2v2zM8 23h-2v-2h2v2zM8 20h-2v-2h2v2zM8 16h-2v-2h2v2zM8 13h-2v-2h2v2zM8 10h-2v-2h2v2zM20 26h-10v-8h10v8zM20 16h-10v-8h10v8zM24 26h-2v-2h2v2zM24 23h-2v-2h2v2zM24 20h-2v-2h2v2zM24 16h-2v-2h2v2zM24 13h-2v-2h2v2zM24 10h-2v-2h2v2z"/> </g>
</svg>