<?xml version="1.0" encoding="utf-8"?>

<!DOCTYPE svg PUBLIC "-//W3C//DTD SVG 1.1//EN" "http://www.w3.org/Graphics/SVG/1.1/DTD/svg11.dtd">
<!-- Uploaded to: SVG Repo, www.svgrepo.com, Generator: SVG Repo Mixer Tools -->
<svg version="1.1" id="_x32_" xmlns="http://www.w3.org/2000/svg" xmlns:xlink="http://www.w3.org/1999/xlink" 
	 width="800px" height="800px" viewBox="0 0 512 512"  xml:space="preserve">
<style type="text/css">
<![CDATA[
	.st0{fill:#000000;}
]]>
</style>
<g>
	<path class="st0" d="M0,48v416h512V48H0z M228,88h56v32h-56V88z M92,424H36v-32h56V424z M92,120H36V88h56V120z M188,424h-56v-32h56
		V424z M188,120h-56V88h56V120z M284,424h-56v-32h56V424z M311.188,257.859l-92.156,55.016c-0.672,0.391-1.5,0.406-2.172,0.016
		s-1.094-1.094-1.094-1.891v-55v-55c0-0.781,0.422-1.5,1.094-1.875c0.672-0.391,1.5-0.375,2.172,0.016l92.156,55.016
		c0.656,0.375,1.047,1.094,1.047,1.844C312.234,256.766,311.844,257.469,311.188,257.859z M380,424h-56v-32h56V424z M380,120h-56V88
		h56V120z M476,424h-56v-32h56V424z M476,120h-56V88h56V120z"/>
</g>
</svg>